<svg width="25" height="18" viewBox="0 0 25 18" fill="none" xmlns="http://www.w3.org/2000/svg">
<path d="M17.823 18C17.823 18 17.0787 17.117 16.4584 16.3366C19.167 15.5768 20.2008 13.8929 20.2008 13.8929C19.3531 14.4474 18.5467 14.8376 17.823 15.1045C16.7893 15.5358 15.7968 15.8232 14.825 15.9875C12.84 16.3572 11.0205 16.2545 9.46982 15.967C8.29122 15.7411 7.27809 15.4125 6.43035 15.084C5.9548 14.8991 5.43788 14.6733 4.92098 14.3858C4.85895 14.3446 4.79691 14.3241 4.73489 14.2831C4.69354 14.2625 4.67286 14.242 4.65219 14.2215C4.28001 14.0161 4.07324 13.8723 4.07324 13.8723C4.07324 13.8723 5.06571 15.5152 7.69161 16.2955C7.07132 17.0759 6.30629 18 6.30629 18C1.73682 17.8562 0 14.8786 0 14.8786C0 8.26617 2.97739 2.9064 2.97739 2.9064C5.9548 0.688564 8.7875 0.750171 8.7875 0.750171L8.99424 0.996597C5.27247 2.06444 3.55634 3.68675 3.55634 3.68675C3.55634 3.68675 4.01121 3.44032 4.77624 3.09122C6.98861 2.12605 8.7461 1.85909 9.46982 1.79748C9.59385 1.77694 9.69726 1.75641 9.82129 1.75641C11.0825 1.59213 12.5092 1.55106 13.9979 1.71534C15.9621 1.94123 18.0712 2.51623 20.2215 3.68675C20.2215 3.68675 18.5881 2.14659 15.0731 1.07874L15.3625 0.750171C15.3625 0.750171 18.1952 0.688564 21.1726 2.9064C21.1726 2.9064 24.15 8.26617 24.15 14.8786C24.15 14.8786 22.3925 17.8562 17.823 18ZM8.20852 8.40991C7.02996 8.40991 6.09953 9.43667 6.09953 10.6894C6.09953 11.9421 7.05065 12.9688 8.20852 12.9688C9.38711 12.9688 10.3175 11.9421 10.3175 10.6894C10.3382 9.43667 9.38711 8.40991 8.20852 8.40991ZM15.7554 8.40991C14.5769 8.40991 13.6464 9.43667 13.6464 10.6894C13.6464 11.9421 14.5976 12.9688 15.7554 12.9688C16.934 12.9688 17.8644 11.9421 17.8644 10.6894C17.8644 9.43667 16.934 8.40991 15.7554 8.40991Z" fill="#4D4F60"/>
</svg>
