<svg width="22" height="20" viewBox="0 0 22 20" fill="none" xmlns="http://www.w3.org/2000/svg">
<path d="M21.9358 5.8371C21.7525 2.23548 19.5342 0.223548 15.5192 0.0413979C14.3642 0 13.9883 0 11 0C8.01167 0 7.63583 0 6.4625 0.057957C2.46583 0.223548 0.2475 2.2272 0.0458333 5.85366C0 6.89688 0 7.23634 0 9.93548C0 12.6346 0 12.9741 0.0641667 14.0753C0.2475 17.6852 2.46583 19.6888 6.48083 19.871C7.63583 19.871 8.01167 19.871 11 19.871C13.9883 19.871 14.3642 19.871 15.5375 19.813C19.525 19.6474 21.7525 17.6438 21.9542 14.0173C22 12.9741 22 12.6346 22 9.93548C22 7.23634 22 6.89688 21.9358 5.8371ZM10.8442 14.5472C9.82992 14.5472 8.83849 14.2753 7.99544 13.766C7.15238 13.2567 6.49562 12.5329 6.10833 11.6862C5.72103 10.8396 5.62063 9.90813 5.81984 9.00988C6.01905 8.11164 6.5089 7.28699 7.22737 6.64038C7.94583 5.99376 8.86058 5.55428 9.85578 5.37757C10.851 5.20086 11.8818 5.29488 12.8178 5.64772C13.7538 6.00057 14.5528 6.59636 15.1137 7.35965C15.6745 8.12295 15.972 9.0194 15.9683 9.93548C15.9671 10.5422 15.8336 11.1427 15.5755 11.7029C15.3173 12.263 14.9395 12.7717 14.4637 13.1999C13.9879 13.6281 13.4233 13.9675 12.8023 14.1987C12.1812 14.4299 11.5159 14.5483 10.8442 14.5472ZM16.8667 5.7957C16.6056 5.7957 16.3504 5.72577 16.1333 5.59477C15.9162 5.46376 15.7471 5.27755 15.6471 5.0597C15.5472 4.84184 15.5211 4.60212 15.572 4.37084C15.623 4.13957 15.7487 3.92713 15.9333 3.76039C16.1179 3.59365 16.3531 3.4801 16.6091 3.43409C16.8652 3.38809 17.1306 3.4117 17.3718 3.50194C17.613 3.59218 17.8192 3.74499 17.9642 3.94106C18.1093 4.13712 18.1867 4.36763 18.1867 4.60344C18.1867 4.91965 18.0476 5.2229 17.8 5.44649C17.5525 5.67009 17.2168 5.7957 16.8667 5.7957Z" fill="#4D4F60"/>
</svg>
