<svg width="180" height="46" viewBox="0 0 180 46" fill="none" xmlns="http://www.w3.org/2000/svg">
<path d="M77.8579 15.1722V23.9002H83.2341L81.5671 22.0171V13.2891H76.1953L77.8579 15.1722Z" fill="white"/>
<path d="M91.1857 23.899L89.8853 22.0159V19.6554H92.0846C92.2723 19.6554 92.4381 19.6992 92.6083 19.7868C92.7698 19.87 92.9181 19.997 93.0403 20.1503C93.1625 20.3079 93.2672 20.4875 93.3327 20.7021C93.4069 20.9167 93.4418 21.1531 93.4418 21.4071V22.318L92.3508 23.8946H99.4115L97.3954 22.1604V21.7312C97.3954 21.3458 97.3386 20.9955 97.2252 20.6627C97.1117 20.3298 96.959 20.0408 96.7626 19.7868C96.5663 19.5328 96.335 19.3313 96.0688 19.1605C95.8026 18.9985 95.5233 18.889 95.2178 18.8496C95.6062 18.7314 95.9553 18.5912 96.2695 18.4248C96.5837 18.2628 96.8543 18.0701 97.0812 17.8555C97.3081 17.6409 97.4739 17.3913 97.5917 17.1154C97.7096 16.8395 97.7707 16.5286 97.7707 16.1826C97.7707 15.7315 97.6747 15.3418 97.4783 15.0177C97.2863 14.6936 97.0245 14.4177 96.6972 14.2032C96.3699 13.9886 95.9859 13.809 95.5539 13.6776C95.1218 13.5463 94.6636 13.4499 94.1793 13.3842C93.6992 13.3185 93.2105 13.2747 92.7087 13.2528C92.2112 13.2309 91.7355 13.2266 91.2773 13.2266C91.0635 13.2266 90.793 13.2266 90.4657 13.2266C90.1384 13.2266 89.7806 13.2266 89.3791 13.2309C88.9776 13.2309 88.55 13.2353 88.1005 13.2441C87.651 13.2485 87.1754 13.2572 86.7041 13.2572C86.2241 13.2572 85.7484 13.2616 85.2641 13.2704C84.7797 13.2747 84.3128 13.2835 83.8676 13.2879L86.0932 15.171V22.0246L83.8633 23.9077L91.1857 23.899ZM89.8853 14.8382H90.9326C91.1464 14.8382 91.3646 14.8425 91.5959 14.8557C91.8272 14.8688 92.0497 14.8951 92.2723 14.9301C92.4905 14.9652 92.6999 15.0265 92.8963 15.1009C93.0927 15.1754 93.2672 15.2761 93.4156 15.4075C93.5683 15.5301 93.6818 15.6877 93.7691 15.8761C93.852 16.0644 93.9 16.2877 93.9 16.5505C93.9 16.8877 93.8389 17.1723 93.7211 17.3869C93.6032 17.6015 93.4243 17.7723 93.1756 17.8949C92.9356 18.0175 92.617 18.1051 92.2461 18.1489C91.8752 18.1927 91.4344 18.2146 90.9326 18.2146H89.8853V14.8382Z" fill="white"/>
<path d="M64.0161 22.0171L62 23.9002H70.7407L67.7907 22.0171V19.7967H72.3989V18.172H67.7907V14.9839H72.3116L75.1786 16.9589L75.3183 13.2891H62L64.0161 15.1722V22.0171Z" fill="white"/>
<path d="M156.084 23.899L154.784 22.0159V19.6554H156.983C157.171 19.6554 157.337 19.6992 157.507 19.7868C157.668 19.87 157.817 19.997 157.939 20.1503C158.061 20.3079 158.166 20.4875 158.231 20.7021C158.305 20.9167 158.34 21.1531 158.34 21.4071V22.318L157.249 23.8946H164.31L162.294 22.1604V21.7312C162.294 21.3458 162.237 20.9955 162.124 20.6627C162.01 20.3298 161.857 20.0408 161.661 19.7868C161.465 19.5328 161.233 19.3313 160.967 19.1605C160.701 18.9985 160.422 18.889 160.116 18.8496C160.505 18.7314 160.854 18.5912 161.168 18.4248C161.482 18.2628 161.753 18.0701 161.98 17.8555C162.207 17.6409 162.372 17.3913 162.49 17.1154C162.608 16.8395 162.669 16.5286 162.669 16.1826C162.669 15.7315 162.573 15.3418 162.377 15.0177C162.185 14.6936 161.923 14.4177 161.596 14.2032C161.268 13.9886 160.884 13.809 160.452 13.6776C160.02 13.5463 159.562 13.4499 159.078 13.3842C158.598 13.3185 158.109 13.2747 157.607 13.2528C157.11 13.2309 156.634 13.2266 156.176 13.2266C155.962 13.2266 155.691 13.2266 155.364 13.2266C155.037 13.2266 154.679 13.2266 154.278 13.2309C153.876 13.2309 153.448 13.2353 152.999 13.2441C152.549 13.2485 152.074 13.2572 151.603 13.2572C151.123 13.2572 150.647 13.2616 150.162 13.2704C149.678 13.2747 149.211 13.2835 148.766 13.2879L150.992 15.171V22.0246L148.762 23.9077L156.084 23.899ZM154.784 14.8382H155.831C156.045 14.8382 156.263 14.8425 156.494 14.8557C156.726 14.8688 156.948 14.8951 157.171 14.9301C157.389 14.9652 157.598 15.0265 157.795 15.1009C157.991 15.1754 158.166 15.2761 158.314 15.4075C158.467 15.5301 158.58 15.6877 158.668 15.8761C158.75 16.0644 158.798 16.2877 158.798 16.5505C158.798 16.8877 158.737 17.1723 158.62 17.3869C158.502 17.6015 158.323 17.7723 158.074 17.8949C157.834 18.0175 157.515 18.1051 157.145 18.1489C156.774 18.1927 156.333 18.2146 155.831 18.2146H154.784V14.8382Z" fill="white"/>
<path d="M99.5586 23.9002H112.515V20.3967L109.582 22.2054H105.349V19.0566H109.665V17.4319H105.349V14.9839H109.582L112.449 16.9633L112.589 13.2891H99.5586L101.57 15.1722V22.0171L99.5586 23.9002Z" fill="white"/>
<path d="M118.133 23.9002H123.858V18.8946H127.807V23.9002H133.524L131.517 22.0171V15.1722L133.389 13.2891H127.807V17.3399H123.858V13.2891H118.133L120.149 15.159V22.0171L118.133 23.9002Z" fill="white"/>
<path d="M112.904 30.9604L114.654 28.4248H103.313L105.39 30.8728L100.834 40.2402L97.9844 42.7408H106.996L104.216 40.2402L104.67 39.1892H111.054L111.468 40.2402L109.365 42.7408H119.524L116.98 40.2139L112.904 30.9604ZM105.586 37.1046L108.034 31.4728L110.251 37.1046H105.586Z" fill="white"/>
<path d="M93.3095 30.7152L97.1714 33.3822L97.3634 28.4248H79.7773L82.496 30.9604V40.2052L79.7773 42.7408H97.2674V38.0199L93.3095 40.4548H87.5929V36.2112H93.4273V34.0128H87.5929V30.7152H93.3095Z" fill="white"/>
<path d="M154.5 30.9604V35.4799C154.5 36.1981 154.465 36.8287 154.391 37.3674C154.326 37.906 154.216 38.3659 154.086 38.7556C153.955 39.141 153.793 39.4607 153.601 39.7147C153.409 39.9687 153.191 40.1658 152.942 40.3147C152.693 40.4636 152.423 40.5643 152.126 40.6212C151.829 40.6782 151.507 40.7044 151.171 40.7044C150.608 40.7044 150.119 40.6125 149.7 40.4329C149.277 40.2446 148.928 39.9468 148.653 39.5352C148.378 39.1191 148.168 38.5805 148.029 37.9148C147.889 37.2535 147.819 36.439 147.819 35.4843V30.9561L150.28 28.4292H140.1L142.823 30.9561V36.0842C142.823 37.2579 142.954 38.2827 143.224 39.1629C143.495 40.0432 143.927 40.7789 144.529 41.3657C145.131 41.9525 145.921 42.3949 146.894 42.6883C147.867 42.9817 149.054 43.1306 150.464 43.1306C151.136 43.1306 151.768 43.0912 152.362 42.9992C152.96 42.916 153.505 42.7627 154.007 42.5569C154.513 42.3467 154.963 42.0708 155.364 41.7204C155.77 41.3745 156.102 40.9409 156.381 40.4198C156.656 39.8986 156.87 39.2768 157.018 38.5629C157.166 37.8447 157.245 37.0214 157.245 36.0842V30.9604L159.724 28.4248H152.392L154.5 30.9604Z" fill="white"/>
<path d="M133.183 37.9096V40.4058C132.847 40.6204 132.471 40.7693 132.057 40.8525C131.647 40.9313 131.158 40.9751 130.586 40.9751C129.945 40.9751 129.325 40.8569 128.745 40.6248C128.16 40.3927 127.645 40.0423 127.209 39.5913C126.777 39.1358 126.419 38.5709 126.161 37.8965C125.895 37.2177 125.769 36.4382 125.769 35.5579C125.769 34.6295 125.886 33.8281 126.122 33.158C126.362 32.4836 126.685 31.9275 127.091 31.4851C127.497 31.0428 127.977 30.7231 128.513 30.5086C129.055 30.2983 129.626 30.1845 130.228 30.1845C130.774 30.1845 131.311 30.2502 131.826 30.3947C132.349 30.5305 132.838 30.7319 133.3 30.999C133.763 31.2662 134.186 31.5902 134.566 31.9756C134.954 32.361 135.282 32.8077 135.552 33.3026H138.013V28.4328H135.845L135.103 29.405C134.736 29.2035 134.33 29.0196 133.898 28.8576C133.466 28.6868 133.008 28.5466 132.532 28.4284C132.052 28.3101 131.559 28.2138 131.057 28.1525C130.551 28.0868 130.045 28.0518 129.543 28.0518C128.71 28.0518 127.894 28.1262 127.095 28.2663C126.301 28.4065 125.555 28.6298 124.843 28.9232C124.132 29.2167 123.486 29.5801 122.897 30.0137C122.312 30.4472 121.798 30.9509 121.37 31.5289C120.942 32.1114 120.611 32.7595 120.375 33.4821C120.139 34.2047 120.021 35.0061 120.021 35.8645C120.021 36.7797 120.139 37.5855 120.375 38.2994C120.611 39.0132 120.951 39.6307 121.383 40.1737C121.815 40.7124 122.33 41.1678 122.932 41.5401C123.53 41.9123 124.193 42.2232 124.913 42.4597C125.638 42.6962 126.41 42.867 127.23 42.9677C128.051 43.0772 128.897 43.1254 129.77 43.1254C130.276 43.1254 130.783 43.1035 131.28 43.0509C131.778 43.0071 132.258 42.9196 132.733 42.8145C133.204 42.705 133.658 42.5605 134.09 42.3853C134.522 42.2101 134.928 41.9955 135.312 41.7415L135.84 42.74H138.131V35.1156H130.364L133.183 37.9096Z" fill="white"/>
<path d="M142.756 24.0578C143.301 23.9658 143.821 23.8257 144.323 23.633C144.824 23.4403 145.291 23.1994 145.728 22.8973C146.168 22.6039 146.548 22.2491 146.871 21.8331C147.198 21.4214 147.456 20.9397 147.643 20.4054C147.831 19.8668 147.923 19.2624 147.923 18.5924C147.923 17.9136 147.831 17.3049 147.652 16.7575C147.473 16.2144 147.225 15.7371 146.91 15.321C146.587 14.9094 146.216 14.5547 145.784 14.2569C145.352 13.9591 144.89 13.727 144.388 13.5387C143.886 13.3503 143.363 13.2146 142.813 13.1314C142.263 13.0482 141.704 13 141.15 13C140.644 13 140.125 13.0438 139.597 13.1314C139.069 13.2146 138.549 13.3503 138.047 13.5387C137.546 13.727 137.074 13.9635 136.634 14.2569C136.189 14.5503 135.8 14.9006 135.468 15.321C135.137 15.7371 134.879 16.2144 134.679 16.7575C134.487 17.3005 134.391 17.9092 134.391 18.5924C134.391 19.2887 134.487 19.9106 134.67 20.4492C134.858 20.9966 135.111 21.4784 135.434 21.89C135.756 22.3017 136.136 22.6564 136.577 22.9454C137.009 23.2345 137.485 23.471 137.982 23.6593C138.479 23.8476 138.999 23.9746 139.54 24.0622C140.081 24.1454 140.613 24.1848 141.146 24.1848C141.674 24.1892 142.211 24.141 142.756 24.0578ZM140.116 22.363C139.806 22.1528 139.536 21.8637 139.313 21.5046C139.086 21.1368 138.912 20.7076 138.789 20.2171C138.667 19.7179 138.602 19.1836 138.602 18.5968C138.602 18.0187 138.663 17.48 138.789 16.9764C138.916 16.4728 139.086 16.0349 139.313 15.6582C139.54 15.286 139.81 14.9926 140.116 14.778C140.421 14.5634 140.77 14.4539 141.141 14.4539C141.53 14.4539 141.879 14.5634 142.193 14.778C142.507 14.9926 142.778 15.286 143.005 15.6582C143.232 16.0305 143.397 16.4728 143.515 16.9764C143.633 17.4844 143.694 18.0275 143.694 18.5968C143.694 19.1661 143.633 19.7047 143.507 20.1996C143.376 20.6988 143.201 21.128 142.979 21.4871C142.752 21.8506 142.481 22.144 142.167 22.3499C141.857 22.5644 141.512 22.6652 141.141 22.6652C140.766 22.6739 140.43 22.5688 140.116 22.363Z" fill="white"/>
<path d="M173.434 30.7152L177.296 33.3822L177.488 28.4248H159.902L162.621 30.9604V40.2052L159.902 42.7408H177.392V38.0199L173.434 40.4548H167.722V36.2112H173.552V34.0128H167.722V30.7152H173.434Z" fill="white"/>
<path d="M173.529 13.2891L175.536 15.1722V18.6187L169.759 13.2891H164.273L166.486 15.3736V22.0171L164.54 23.9002H170.597L168.436 22.0171V17.2129L175.536 23.9002H177.487V15.1722L179.289 13.2891H173.529Z" fill="white"/>
<path d="M69.8199 40.4548V30.9604L73.5073 28.4248H62L64.7186 30.9604V40.2052L62 42.7408H78.9053V36.9207L74.9473 40.4548H69.8199Z" fill="white"/>
<path d="M18.1472 15.5592L17.5245 23.3233L17.5376 23.3145L16.3359 38.1783C16.3359 38.2575 16.3491 38.3323 16.3798 38.4071C16.5684 38.8825 17.371 39.195 18.1209 39.3931L19.8621 15.7792L21.3752 15.6428V39.8728C21.6471 39.8948 21.9146 39.9124 22.1821 39.93C23.2786 40.0005 24.375 40.0401 25.4714 40.0797C26.5766 40.1193 27.6862 40.1545 28.7914 40.2161C29.5326 40.2557 30.2738 40.3086 31.015 40.3878L29.0239 15.5636L30.458 13.244L29.2914 12.8215L29.3133 10.5107L29.9317 9.98691C29.2914 9.02739 27.3705 8.29675 26.5503 7.46928C26.3223 7.236 25.4977 6.47015 25.3837 6.28528C24.8925 5.45341 25.353 5.4314 24.4013 4.85921L23.7347 0.0264088L23.5856 0L23.4408 0.0264088L22.7698 4.85481C21.8181 5.4226 22.2786 5.44901 21.7874 6.28088C21.6778 6.47015 20.8532 7.236 20.6208 7.46488C19.8007 8.29675 17.8753 9.02739 17.2394 9.98251L17.8578 10.5063L17.8797 12.8171L16.7131 13.2396L18.1472 15.5592ZM25.9714 9.43673C26.7828 9.55557 27.524 9.73603 28.1687 9.9649V12.5618L28.1467 12.5574C27.4933 12.4517 26.7696 12.3681 25.9933 12.3109L25.9714 9.43673ZM25.4934 17.9051C25.8837 17.98 26.2038 18.3937 26.2038 18.825V20.9377C25.7565 20.8717 25.2828 20.8189 24.7829 20.7881V18.561C24.7829 18.1252 25.103 17.8303 25.4934 17.9051ZM21.9585 9.3531C22.4935 9.30028 23.0505 9.26947 23.625 9.26947C24.1162 9.26947 24.5987 9.29148 25.0636 9.33109V12.2581C24.5855 12.2361 24.0899 12.2273 23.5812 12.2273C23.0242 12.2273 22.4804 12.2405 21.9585 12.2669V9.3531V9.3531ZM19.0069 9.99571C19.5989 9.78004 20.2743 9.60398 21.0155 9.48074L21.0287 12.3285C20.3006 12.3857 19.6209 12.4649 19.0069 12.5662V9.99571Z" fill="white"/>
<path d="M39.8883 43.2532C37.7042 42.3377 34.9762 41.6246 31.7089 41.1096C26.0907 40.3174 15.679 41.3209 15.7053 38.1563L16.8105 24.4941C14.1747 26.0831 12.4555 27.4167 9.5916 25.9334C9.21443 27.201 9.88983 28.0857 10.71 28.9176C8.61797 29.1025 6.43826 28.5303 4.17522 27.3815C4.32434 28.0065 4.05681 29.6615 4.77607 31.3428C5.47778 32.9934 1.40782 31.6729 0.653475 31.1932C0.824518 32.5004 0.960476 33.9309 2.81126 34.5163C2.51741 35.6342 1.14906 35.8323 0 35.4802C0.684175 37.6281 1.8771 37.276 3.59192 38.8473C3.05686 39.8508 1.57886 40.0137 0.640317 39.666C1.65342 42.0119 2.31567 44.512 4.67519 45.9997H13.7493H14.2273H14.4203H14.7054H15.0782H32.108C36.3665 45.9997 41.2742 45.9997 44.274 45.9997C43.1337 44.8113 41.6645 43.9486 39.8883 43.2532Z" fill="white"/>
<path d="M55.6322 31.0373C53.2464 29.1799 52.8912 26.8955 52.0666 25.7424C49.2422 25.4078 48.3739 22.0451 47.5713 18.5856C47.0494 19.4527 46.7774 20.5662 46.716 21.8779C42.19 14.6859 38.3744 11.7721 35.2342 12.9253C38.4752 14.2589 39.9839 16.4597 40.0848 19.369C37.4884 17.45 34.6728 15.9887 30.9537 16.4333C32.6861 17.0319 33.9623 17.8417 33.379 19.5099C32.2299 19.6551 31.1072 19.8224 30.0195 20.0117L30.9274 31.3498C31.1028 31.3146 31.287 31.2838 31.4712 31.2486C31.5195 32.7451 31.3835 32.6835 31.9449 33.5549C33.3659 35.7513 38.6463 36.1034 41.4225 39.3341C42.3084 35.6632 33.0808 34.8182 36.6157 30.5443C37.7077 30.716 39.212 30.1966 40.0102 30.7424C39.5015 31.6623 38.6331 31.9616 37.4051 31.6359C37.4007 33.3481 39.4269 33.7838 41.3654 35.7601C42.7996 37.2214 42.2821 39.0568 43.0364 40.0031C43.7162 40.857 46.3959 40.6897 49.0756 41.3103C51.9307 41.9705 54.8033 43.3746 55.8077 42.9168C55.5358 41.2883 58.1584 39.8314 57.5971 38.687C56.8383 39.3033 51.6851 38.445 50.8518 38.2337C49.9922 37.9608 49.7203 36.8164 48.3563 36.0418C49.1063 36.077 51.2553 37.1597 52.2158 37.7451C51.4088 33.3569 44.3565 35.0911 45.3652 30.5179C48.3519 31.0505 50.5097 34.8534 53.2376 34.915C53.2025 35.3155 52.8824 35.6764 52.4438 36.0242C53.685 36.3587 54.6148 35.7865 55.5226 35.1307C55.4744 35.562 55.0007 35.9185 54.5139 36.2706C55.6366 36.3983 56.4524 35.9845 57.1585 35.3683C57.1936 35.7117 57.1497 36.0902 57.0795 36.4819C58.5225 35.9978 58.9917 35.0646 59.4347 34.1183C59.4698 33.3569 59.4829 33.0752 59.518 32.3093C59.2154 32.1993 58.9128 32.0849 58.6102 31.9748C57.3383 31.9308 56.2945 31.6667 55.6322 31.0373ZM51.1193 30.1878C50.4571 30.3991 50.0931 30.5311 49.3913 30.5355C48.2949 30.5443 47.637 29.039 47.4265 28.1456C47.3739 27.9167 47.3344 27.6878 47.3125 27.4545L47.216 26.3674L48.1721 26.8867C48.3607 26.988 48.5493 27.0804 48.7423 27.1772C49.7641 27.701 50.5316 28.4052 51.3518 29.2063L52.0491 29.8929L51.1193 30.1878Z" fill="white"/>
</svg>
