<svg width="22" height="13" viewBox="0 0 22 13" fill="none" xmlns="http://www.w3.org/2000/svg">
<path d="M21.8834 11.3358C21.8567 11.2784 21.8319 11.2308 21.8088 11.1926C21.4271 10.5052 20.6977 9.66139 19.621 8.661L19.5983 8.63809L19.5869 8.62686L19.5754 8.61535H19.5638C19.0751 8.14952 18.7657 7.8363 18.6361 7.67594C18.399 7.37047 18.3459 7.06127 18.4755 6.74797C18.567 6.51126 18.9109 6.01137 19.5064 5.24761C19.8196 4.84284 20.0677 4.51843 20.2509 4.27402C21.572 2.51758 22.1448 1.39519 21.9691 0.906411L21.9009 0.79219C21.855 0.723425 21.7367 0.660517 21.546 0.603145C21.3548 0.545895 21.1105 0.536427 20.8127 0.574581L17.5138 0.597368C17.4604 0.578432 17.3841 0.580197 17.2847 0.603145C17.1854 0.626094 17.1357 0.637609 17.1357 0.637609L17.0783 0.666294L17.0327 0.700757C16.9945 0.723545 16.9525 0.763625 16.9067 0.820916C16.8611 0.878006 16.8229 0.945006 16.7924 1.02135C16.4333 1.94535 16.0249 2.80444 15.5666 3.59857C15.2841 4.0721 15.0246 4.48249 14.7876 4.82996C14.5509 5.17732 14.3524 5.43325 14.1921 5.59729C14.0316 5.76151 13.8868 5.89306 13.7568 5.99243C13.6269 6.09185 13.5277 6.13386 13.4591 6.11849C13.3903 6.10313 13.3255 6.08788 13.2642 6.07263C13.1573 6.00387 13.0714 5.91035 13.0066 5.792C12.9415 5.67364 12.8977 5.52468 12.8748 5.34522C12.852 5.16565 12.8385 5.01119 12.8347 4.88132C12.8311 4.75161 12.8328 4.56814 12.8405 4.33144C12.8484 4.09461 12.852 3.93437 12.852 3.85036C12.852 3.56013 12.8577 3.24515 12.869 2.90534C12.8806 2.56552 12.8899 2.29628 12.8977 2.09793C12.9055 1.89938 12.9091 1.68931 12.9091 1.46785C12.9091 1.24639 12.8957 1.07271 12.869 0.946651C12.8427 0.820755 12.8023 0.69855 12.7491 0.580077C12.6955 0.461723 12.6171 0.37017 12.5142 0.305176C12.4112 0.240262 12.283 0.188748 12.1305 0.150474C11.7258 0.0588807 11.2103 0.00933281 10.584 0.00162982C9.16376 -0.0136157 8.25115 0.0780979 7.84642 0.276651C7.68607 0.360541 7.54095 0.475163 7.41121 0.620156C7.27372 0.788218 7.25454 0.879932 7.35379 0.895017C7.81204 0.963662 8.13645 1.12787 8.32738 1.38749L8.39619 1.52506C8.44971 1.62431 8.50315 1.80004 8.55662 2.05199C8.61002 2.30394 8.64449 2.58266 8.65965 2.88797C8.69777 3.44551 8.69777 3.92278 8.65965 4.3198C8.62142 4.71699 8.58531 5.02619 8.55085 5.24765C8.51639 5.46911 8.46487 5.64857 8.39619 5.78598C8.32738 5.92343 8.2816 6.00744 8.25866 6.03793C8.23575 6.06842 8.21665 6.08764 8.20148 6.09518C8.10223 6.13321 7.999 6.15259 7.89216 6.15259C7.78516 6.15259 7.65541 6.09907 7.50272 5.99211C7.35006 5.88515 7.19163 5.73824 7.02742 5.55112C6.86321 5.36396 6.67802 5.10242 6.47176 4.76646C6.26567 4.43049 6.05183 4.03343 5.83037 3.57526L5.64714 3.24299C5.5326 3.02923 5.37613 2.71798 5.17758 2.30952C4.9789 1.9009 4.8033 1.50564 4.65064 1.12382C4.58962 0.963461 4.49795 0.841377 4.37578 0.757366L4.31845 0.722903C4.28034 0.692412 4.21916 0.660035 4.13523 0.625532C4.05117 0.591069 3.96347 0.566355 3.87176 0.55115L0.733229 0.573938C0.412511 0.573938 0.194902 0.646595 0.0803198 0.791708L0.0344629 0.860353C0.0115545 0.898587 0 0.95965 0 1.0437C0 1.12771 0.0229084 1.23082 0.0687653 1.3529C0.526933 2.42972 1.02518 3.46822 1.56351 4.46857C2.10184 5.46891 2.56963 6.27472 2.96662 6.88526C3.36368 7.49624 3.76841 8.07289 4.1808 8.6149C4.59319 9.15712 4.86617 9.5046 4.99973 9.65726C5.13345 9.81019 5.23848 9.92453 5.31483 10.0009L5.60124 10.2757C5.78451 10.459 6.05363 10.6786 6.40873 10.9343C6.76391 11.1903 7.15713 11.4422 7.58857 11.6906C8.0201 11.9386 8.52212 12.141 9.09491 12.2975C9.66762 12.4541 10.225 12.517 10.7673 12.4867H12.0846C12.3517 12.4636 12.5541 12.3796 12.6917 12.2346L12.7373 12.1772C12.7679 12.1316 12.7966 12.0608 12.8231 11.9655C12.8499 11.8701 12.8632 11.7649 12.8632 11.6505C12.8554 11.3222 12.8804 11.0263 12.9375 10.7629C12.9946 10.4996 13.0597 10.301 13.1324 10.1673C13.2052 10.0337 13.2873 9.92096 13.3786 9.82957C13.4702 9.73798 13.5354 9.68249 13.5737 9.66339C13.6117 9.64418 13.6421 9.63114 13.665 9.62331C13.8483 9.56225 14.0639 9.62139 14.3124 9.801C14.5606 9.98046 14.7934 10.202 15.0112 10.4654C15.2288 10.729 15.4903 11.0247 15.7957 11.353C16.1013 11.6814 16.3685 11.9255 16.5975 12.0861L16.8265 12.2236C16.9795 12.3153 17.178 12.3993 17.4224 12.4757C17.6664 12.552 17.8801 12.5711 18.0637 12.5329L20.9959 12.4872C21.2859 12.4872 21.5116 12.4392 21.6717 12.3439C21.8321 12.2484 21.9274 12.1433 21.9581 12.0289C21.9888 11.9144 21.9904 11.7845 21.9639 11.6393C21.9368 11.4944 21.91 11.3931 21.8834 11.3358Z" fill="white"/>
</svg>
