<svg width="24" height="14" viewBox="0 0 24 14" fill="none" xmlns="http://www.w3.org/2000/svg">
<path d="M23.6396 2.7355C23.5381 2.07717 23.1757 1.4677 22.6118 1.00721C22.048 0.546726 21.3163 0.262616 20.5369 0.201563C19.0636 0.0518305 16.1442 0 12.3015 0C8.45879 0 5.11848 0.103661 3.19033 0.282188C2.56279 0.285802 1.95609 0.47366 1.47338 0.813824C0.99067 1.15399 0.661743 1.62546 0.542522 2.14809C0.20823 3.76881 0.0266091 5.40953 -0.00061826 7.05471C-0.0156063 8.38661 0.0956431 9.71737 0.332055 11.0341C0.637572 12.3011 1.44549 13.5623 3.10207 13.7178C4.75865 13.8733 8.49274 14 11.9824 14C15.4721 14 17.5292 13.9251 20.0888 13.7927C22.6483 13.6602 23.1915 12.6409 23.4834 11.4891C23.8137 10.0255 23.9841 8.53913 23.9926 7.04895C24.0307 5.605 23.9125 4.16113 23.6396 2.7355ZM9.64691 9.98601V4.03126L15.7572 7.00864L9.64691 9.98601Z" fill="white"/>
</svg>
